<mxfile host="app.diagrams.net" agent="Mozilla/5.0 (Windows NT 10.0; Win64; x64; rv:138.0) Gecko/20100101 Firefox/138.0" version="27.0.5">
  <diagram name="Page-1" id="dCLuWsKuzoWGT-_ZAxL0">
    <mxGraphModel dx="1426" dy="751" grid="1" gridSize="10" guides="1" tooltips="1" connect="1" arrows="1" fold="1" page="1" pageScale="1" pageWidth="850" pageHeight="1100" math="0" shadow="0">
      <root>
        <mxCell id="0" />
        <mxCell id="1" parent="0" />
        <mxCell id="9OIZ0eUuH0hRipxfZxG9-1" value="&lt;div&gt;BusinessLogic&lt;/div&gt;&lt;div&gt;&lt;br&gt;&lt;/div&gt;&lt;div&gt;&lt;br&gt;&lt;/div&gt;&lt;div&gt;&lt;br&gt;&lt;/div&gt;&lt;div&gt;&lt;br&gt;&lt;/div&gt;&lt;div&gt;&lt;br&gt;&lt;/div&gt;&lt;div&gt;&lt;br&gt;&lt;/div&gt;&lt;div&gt;&lt;br&gt;&lt;/div&gt;" style="shape=folder;fontStyle=1;spacingTop=10;tabWidth=40;tabHeight=14;tabPosition=left;html=1;whiteSpace=wrap;" vertex="1" parent="1">
          <mxGeometry x="100" y="300" width="260" height="150" as="geometry" />
        </mxCell>
        <mxCell id="9OIZ0eUuH0hRipxfZxG9-2" value="&lt;div&gt;DataAccess&lt;/div&gt;&lt;div&gt;&lt;br&gt;&lt;/div&gt;&lt;div&gt;&lt;br&gt;&lt;/div&gt;&lt;div&gt;&lt;br&gt;&lt;/div&gt;&lt;div&gt;&lt;br&gt;&lt;/div&gt;&lt;div&gt;&lt;br&gt;&lt;/div&gt;&lt;div&gt;&lt;br&gt;&lt;/div&gt;&lt;div&gt;&lt;br&gt;&lt;/div&gt;" style="shape=folder;fontStyle=1;spacingTop=10;tabWidth=40;tabHeight=14;tabPosition=left;html=1;whiteSpace=wrap;" vertex="1" parent="1">
          <mxGeometry x="115" y="470" width="250" height="150" as="geometry" />
        </mxCell>
        <mxCell id="9OIZ0eUuH0hRipxfZxG9-3" value="&lt;div&gt;Connection&lt;/div&gt;&lt;div&gt;&lt;br&gt;&lt;/div&gt;&lt;div&gt;&lt;br&gt;&lt;/div&gt;&lt;div&gt;&lt;br&gt;&lt;/div&gt;&lt;div&gt;&lt;br&gt;&lt;/div&gt;&lt;div&gt;&lt;br&gt;&lt;/div&gt;" style="shape=folder;fontStyle=1;spacingTop=10;tabWidth=40;tabHeight=14;tabPosition=left;html=1;whiteSpace=wrap;" vertex="1" parent="1">
          <mxGeometry x="440" y="475" width="210" height="150" as="geometry" />
        </mxCell>
        <mxCell id="9OIZ0eUuH0hRipxfZxG9-4" value="&lt;div&gt;Model&lt;/div&gt;&lt;div&gt;&lt;br&gt;&lt;/div&gt;&lt;div&gt;&lt;br&gt;&lt;/div&gt;&lt;div&gt;&lt;br&gt;&lt;/div&gt;&lt;div&gt;&lt;br&gt;&lt;/div&gt;&lt;div&gt;&lt;br&gt;&lt;/div&gt;&lt;div&gt;&lt;br&gt;&lt;/div&gt;&lt;div&gt;&lt;br&gt;&lt;/div&gt;" style="shape=folder;fontStyle=1;spacingTop=10;tabWidth=40;tabHeight=14;tabPosition=left;html=1;whiteSpace=wrap;" vertex="1" parent="1">
          <mxGeometry x="440" y="290" width="210" height="150" as="geometry" />
        </mxCell>
        <mxCell id="9OIZ0eUuH0hRipxfZxG9-5" value="&lt;div&gt;GraphicalUserInterface&lt;/div&gt;&lt;div&gt;&lt;br&gt;&lt;/div&gt;&lt;div&gt;&lt;br&gt;&lt;/div&gt;&lt;div&gt;&lt;br&gt;&lt;/div&gt;&lt;div&gt;&lt;br&gt;&lt;/div&gt;&lt;div&gt;&lt;br&gt;&lt;/div&gt;&lt;div&gt;&lt;br&gt;&lt;/div&gt;&lt;div&gt;&lt;br&gt;&lt;/div&gt;&lt;div&gt;&lt;br&gt;&lt;/div&gt;" style="shape=folder;fontStyle=1;spacingTop=10;tabWidth=40;tabHeight=14;tabPosition=left;html=1;whiteSpace=wrap;" vertex="1" parent="1">
          <mxGeometry x="70" y="120" width="290" height="150" as="geometry" />
        </mxCell>
        <mxCell id="9OIZ0eUuH0hRipxfZxG9-6" style="edgeStyle=orthogonalEdgeStyle;rounded=0;orthogonalLoop=1;jettySize=auto;html=1;entryX=-0.005;entryY=0.467;entryDx=0;entryDy=0;entryPerimeter=0;" edge="1" parent="1" source="9OIZ0eUuH0hRipxfZxG9-2" target="9OIZ0eUuH0hRipxfZxG9-3">
          <mxGeometry relative="1" as="geometry" />
        </mxCell>
        <mxCell id="9OIZ0eUuH0hRipxfZxG9-7" style="edgeStyle=orthogonalEdgeStyle;rounded=0;orthogonalLoop=1;jettySize=auto;html=1;entryX=0;entryY=0;entryDx=0;entryDy=116;entryPerimeter=0;" edge="1" parent="1" source="9OIZ0eUuH0hRipxfZxG9-2" target="9OIZ0eUuH0hRipxfZxG9-4">
          <mxGeometry relative="1" as="geometry" />
        </mxCell>
        <mxCell id="9OIZ0eUuH0hRipxfZxG9-8" style="edgeStyle=orthogonalEdgeStyle;rounded=0;orthogonalLoop=1;jettySize=auto;html=1;exitX=0.5;exitY=1;exitDx=0;exitDy=0;exitPerimeter=0;entryX=0.51;entryY=0.093;entryDx=0;entryDy=0;entryPerimeter=0;" edge="1" parent="1" source="9OIZ0eUuH0hRipxfZxG9-1" target="9OIZ0eUuH0hRipxfZxG9-2">
          <mxGeometry relative="1" as="geometry" />
        </mxCell>
        <mxCell id="9OIZ0eUuH0hRipxfZxG9-9" style="edgeStyle=orthogonalEdgeStyle;rounded=0;orthogonalLoop=1;jettySize=auto;html=1;entryX=0.5;entryY=0.113;entryDx=0;entryDy=0;entryPerimeter=0;" edge="1" parent="1" source="9OIZ0eUuH0hRipxfZxG9-5" target="9OIZ0eUuH0hRipxfZxG9-1">
          <mxGeometry relative="1" as="geometry" />
        </mxCell>
        <mxCell id="9OIZ0eUuH0hRipxfZxG9-10" style="edgeStyle=orthogonalEdgeStyle;rounded=0;orthogonalLoop=1;jettySize=auto;html=1;entryX=0;entryY=0;entryDx=0;entryDy=82;entryPerimeter=0;" edge="1" parent="1" source="9OIZ0eUuH0hRipxfZxG9-1" target="9OIZ0eUuH0hRipxfZxG9-4">
          <mxGeometry relative="1" as="geometry" />
        </mxCell>
        <mxCell id="9OIZ0eUuH0hRipxfZxG9-11" style="edgeStyle=orthogonalEdgeStyle;rounded=0;orthogonalLoop=1;jettySize=auto;html=1;entryX=0;entryY=0;entryDx=0;entryDy=48;entryPerimeter=0;" edge="1" parent="1" source="9OIZ0eUuH0hRipxfZxG9-5" target="9OIZ0eUuH0hRipxfZxG9-4">
          <mxGeometry relative="1" as="geometry" />
        </mxCell>
        <mxCell id="9OIZ0eUuH0hRipxfZxG9-12" value="AbstractDAO" style="html=1;whiteSpace=wrap;" vertex="1" parent="1">
          <mxGeometry x="120" y="510" width="80" height="40" as="geometry" />
        </mxCell>
        <mxCell id="9OIZ0eUuH0hRipxfZxG9-13" value="OrdersDAO" style="html=1;whiteSpace=wrap;" vertex="1" parent="1">
          <mxGeometry x="200" y="550" width="80" height="40" as="geometry" />
        </mxCell>
        <mxCell id="9OIZ0eUuH0hRipxfZxG9-14" value="ProductDAO" style="html=1;whiteSpace=wrap;" vertex="1" parent="1">
          <mxGeometry x="120" y="550" width="80" height="40" as="geometry" />
        </mxCell>
        <mxCell id="9OIZ0eUuH0hRipxfZxG9-15" value="ClientDAO" style="html=1;whiteSpace=wrap;" vertex="1" parent="1">
          <mxGeometry x="200" y="510" width="80" height="40" as="geometry" />
        </mxCell>
        <mxCell id="9OIZ0eUuH0hRipxfZxG9-16" value="&lt;div&gt;BillDAO&lt;/div&gt;" style="html=1;whiteSpace=wrap;" vertex="1" parent="1">
          <mxGeometry x="280" y="550" width="80" height="40" as="geometry" />
        </mxCell>
        <mxCell id="9OIZ0eUuH0hRipxfZxG9-17" value="ProductBLL" style="html=1;whiteSpace=wrap;" vertex="1" parent="1">
          <mxGeometry x="115" y="390" width="80" height="40" as="geometry" />
        </mxCell>
        <mxCell id="9OIZ0eUuH0hRipxfZxG9-18" value="&lt;div&gt;OrdersBLL&lt;/div&gt;" style="html=1;whiteSpace=wrap;" vertex="1" parent="1">
          <mxGeometry x="116" y="350" width="80" height="40" as="geometry" />
        </mxCell>
        <mxCell id="9OIZ0eUuH0hRipxfZxG9-19" value="&lt;div&gt;ClientBLL&lt;/div&gt;" style="html=1;whiteSpace=wrap;" vertex="1" parent="1">
          <mxGeometry x="195" y="350" width="80" height="40" as="geometry" />
        </mxCell>
        <mxCell id="9OIZ0eUuH0hRipxfZxG9-20" value="BillBLL" style="html=1;whiteSpace=wrap;" vertex="1" parent="1">
          <mxGeometry x="195" y="390" width="80" height="40" as="geometry" />
        </mxCell>
        <mxCell id="9OIZ0eUuH0hRipxfZxG9-22" value="&lt;div&gt;LogController&lt;/div&gt;" style="html=1;whiteSpace=wrap;" vertex="1" parent="1">
          <mxGeometry x="90" y="170" width="100" height="40" as="geometry" />
        </mxCell>
        <mxCell id="9OIZ0eUuH0hRipxfZxG9-23" value="&lt;div&gt;ClientController&lt;/div&gt;" style="html=1;whiteSpace=wrap;" vertex="1" parent="1">
          <mxGeometry x="190" y="170" width="90" height="40" as="geometry" />
        </mxCell>
        <mxCell id="9OIZ0eUuH0hRipxfZxG9-24" value="ProductController" style="html=1;whiteSpace=wrap;" vertex="1" parent="1">
          <mxGeometry x="90" y="210" width="100" height="40" as="geometry" />
        </mxCell>
        <mxCell id="9OIZ0eUuH0hRipxfZxG9-25" value="OrdersController" style="html=1;whiteSpace=wrap;" vertex="1" parent="1">
          <mxGeometry x="190" y="210" width="90" height="40" as="geometry" />
        </mxCell>
        <mxCell id="9OIZ0eUuH0hRipxfZxG9-26" value="&lt;div&gt;Orders&lt;/div&gt;" style="html=1;whiteSpace=wrap;" vertex="1" parent="1">
          <mxGeometry x="461" y="340" width="80" height="40" as="geometry" />
        </mxCell>
        <mxCell id="9OIZ0eUuH0hRipxfZxG9-27" value="&lt;div&gt;Client&lt;/div&gt;" style="html=1;whiteSpace=wrap;" vertex="1" parent="1">
          <mxGeometry x="540" y="340" width="80" height="40" as="geometry" />
        </mxCell>
        <mxCell id="9OIZ0eUuH0hRipxfZxG9-28" value="Product" style="html=1;whiteSpace=wrap;" vertex="1" parent="1">
          <mxGeometry x="460" y="380" width="80" height="40" as="geometry" />
        </mxCell>
        <mxCell id="9OIZ0eUuH0hRipxfZxG9-29" value="Bill" style="html=1;whiteSpace=wrap;" vertex="1" parent="1">
          <mxGeometry x="540" y="380" width="80" height="40" as="geometry" />
        </mxCell>
        <mxCell id="9OIZ0eUuH0hRipxfZxG9-30" value="ConnectionFactory" style="html=1;whiteSpace=wrap;" vertex="1" parent="1">
          <mxGeometry x="485" y="540" width="120" height="40" as="geometry" />
        </mxCell>
        <mxCell id="9OIZ0eUuH0hRipxfZxG9-31" value="&lt;div&gt;Util&lt;/div&gt;&lt;div&gt;&lt;br&gt;&lt;/div&gt;&lt;div&gt;&lt;br&gt;&lt;/div&gt;&lt;div&gt;&lt;br&gt;&lt;/div&gt;&lt;div&gt;&lt;br&gt;&lt;/div&gt;&lt;div&gt;&lt;br&gt;&lt;/div&gt;&lt;div&gt;&lt;br&gt;&lt;/div&gt;" style="shape=folder;fontStyle=1;spacingTop=10;tabWidth=40;tabHeight=14;tabPosition=left;html=1;whiteSpace=wrap;" vertex="1" parent="1">
          <mxGeometry x="500" y="60" width="220" height="150" as="geometry" />
        </mxCell>
        <mxCell id="9OIZ0eUuH0hRipxfZxG9-32" value="TableVIewBuilder" style="html=1;whiteSpace=wrap;" vertex="1" parent="1">
          <mxGeometry x="560" y="130" width="110" height="50" as="geometry" />
        </mxCell>
        <mxCell id="9OIZ0eUuH0hRipxfZxG9-33" style="edgeStyle=orthogonalEdgeStyle;rounded=0;orthogonalLoop=1;jettySize=auto;html=1;exitX=0;exitY=0;exitDx=290;exitDy=48;exitPerimeter=0;entryX=0;entryY=0;entryDx=0;entryDy=82;entryPerimeter=0;" edge="1" parent="1" source="9OIZ0eUuH0hRipxfZxG9-5" target="9OIZ0eUuH0hRipxfZxG9-31">
          <mxGeometry relative="1" as="geometry" />
        </mxCell>
      </root>
    </mxGraphModel>
  </diagram>
</mxfile>
